<svg xmlns="http://www.w3.org/2000/svg" xmlns:xlink="http://www.w3.org/1999/xlink" version="1.1" id="Layer_1" x="0" y="0" width="169.7" height="152.8" viewBox="15.1 23.6 169.7 152.8" enable-background="new 15.148 23.612 169.704 152.777" xml:space="preserve">
  <path fill="#303030" d="M99.5 76.8c0 4.7-3.8 8.5-8.5 8.5 -4.7 0-8.5-3.8-8.5-8.5 0-4.7 3.8-8.5 8.5-8.5C95.7 68.3 99.5 72.1 99.5 76.8"/>
  <path fill="#303030" d="M139.4 76.8c0 4.7-3.8 8.5-8.5 8.5 -4.7 0-8.5-3.8-8.5-8.5 0-4.7 3.8-8.5 8.5-8.5C135.6 68.3 139.4 72.1 139.4 76.8"/>
  <path fill="#303030" d="M110.6 122.6c-14.5 0-27.5-9.5-29.9-21.9 -0.5-2.4 1.1-4.7 3.5-5.2 2.4-0.5 4.7 1.1 5.2 3.5 1.4 7.3 10.2 15 21.8 14.7 12.1-0.3 20.2-7.6 21.8-14.6 0.6-2.4 3-3.9 5.4-3.3 2.4 0.6 3.9 3 3.3 5.3 -1.3 5.7-5 11-10.4 14.9 -5.6 4.1-12.4 6.3-19.9 6.5C111.2 122.6 110.9 122.6 110.6 122.6"/>
  <path fill="#303030" d="M184 81.5c-1.6-9.7-5.5-18.8-11.5-27.1 -6.7-9.3-16-17.1-26.6-22.5 -10.8-5.5-22.9-8.3-34.9-8.3 -3.4 0-6.8 0.2-10.2 0.7 -14 1.9-27.8 7.7-38.9 16.4 -12.4 9.8-20.4 22.4-23.2 36.5C37.9 81.4 37.6 86 37.3 90.5c-0.5 7-1.1 14.2-3.3 19 -1.5 3.2-3.8 5.4-9.9 5.4 -3.4 0-6.5 1.9-8 4.9 -1.5 3-1.2 6.6 0.9 9.3 9.2 12.3 21.3 19.7 34 24.1 -0.6 1.7-0.9 3.6-0.9 5.5 0 9.7 7.9 17.6 17.6 17.6 9.5 0 17.2-7.5 17.6-16.9 4.1 0.2 23.8 0.3 26 0.2 0.5 9.3 8.2 16.7 17.6 16.7 9.7 0 17.6-7.9 17.6-17.6 0-2.2-0.4-4.3-1.2-6.3 6.9-3.4 13.4-7.9 19.1-13.4 7.9-7.6 13.8-16.6 16.9-26C184.9 102.5 185.7 91.9 184 81.5M67.7 164.6c-3.2 0-5.8-2.6-5.8-5.8 0-3.2 2.6-5.8 5.8-5.8 3.2 0 5.8 2.6 5.8 5.8C73.5 162 70.9 164.6 67.7 164.6M128.9 164.6c-3.2 0-5.8-2.6-5.8-5.8 0-3.2 2.6-5.8 5.8-5.8 3.2 0 5.8 2.6 5.8 5.8C134.7 162 132.1 164.6 128.9 164.6M172.9 110.3c-5.1 15.5-18.5 28.3-32.8 34.8 -3-2.5-6.9-4-11.2-4 -6.8 0-12.8 3.9-15.7 9.6 -3 0.1-25.1 0-30-0.3 -3-5.5-8.8-9.3-15.6-9.3 -4.5 0-8.6 1.7-11.7 4.4 -12.1-3.9-23.4-10.6-31.9-21.8 25.2 0 20.2-28.1 23.5-44.8 5-25.4 30.1-42.5 54.5-45.8 3-0.4 6-0.6 9-0.6C151 32.5 186.7 68.3 172.9 110.3"/>
</svg>
